+8_US_stride6.mot
nRows=135
nColumns=3

name +8_US_stride6.mot
datacolumns 3
datarows 135
range 3.000000 3.670000
endheader
time	soleus_l	med_gas_l
        3.0000000000	       34.6926184616	       36.9170159689	
        3.0050000000	       34.2387492447	       36.6161597539	
        3.0100000000	       33.8793892095	       36.2531184620	
        3.0150000000	       33.7119049755	       35.9227305481	
        3.0200000000	       33.6591654053	       35.5603338294	
        3.0250000000	       33.7368386005	       35.0689179729	
        3.0300000000	       33.9651198082	       34.6181930418	
        3.0350000000	       34.2819233811	       34.2205168227	
        3.0400000000	       34.6242914975	       33.8926275868	
        3.0450000000	       34.8948785732	       33.6556687982	
        3.0500000000	       35.0785580971	       33.4870642243	
        3.0550000000	       35.2551994844	       33.2638788522	
        3.0600000000	       35.3543986867	       33.0090465937	
        3.0650000000	       35.3715040083	       32.7250777603	
        3.0700000000	       35.3391852803	       32.4343374909	
        3.0750000000	       35.2678780037	       32.1988065051	
        3.0800000000	       35.1354201323	       31.8945686650	
        3.0850000000	       34.9222617482	       31.5551251791	
        3.0900000000	       34.6501441702	       31.2446346595	
        3.0950000000	       34.3147024454	       30.9592410505	
        3.1000000000	       33.9265095269	       30.7080730353	
        3.1050000000	       33.6125303875	       30.5475211648	
        3.1100000000	       33.2903421019	       30.4097872630	
        3.1150000000	       32.8734244116	       30.2574973359	
        3.1200000000	       32.5064339295	       30.1257109160	
        3.1250000000	       32.1740702644	       29.9764616619	
        3.1300000000	       31.8752652324	       29.7864663454	
        3.1350000000	       31.6527507374	       29.5876244645	
        3.1400000000	       31.5003557591	       29.4092643779	
        3.1450000000	       31.3224840967	       29.1522447320	
        3.1500000000	       31.1715145332	       28.8962247858	
        3.1550000000	       31.0432545063	       28.6803373031	
        3.1600000000	       30.9102650953	       28.5040782728	
        3.1650000000	       30.7430615073	       28.3652137198	
        3.1700000000	       30.5693998751	       28.2705559612	
        3.1750000000	       30.3071871788	       28.1527819145	
        3.1800000000	       29.8722234807	       27.9737236265	
        3.1850000000	       29.3354458635	       27.7440131012	
        3.1900000000	       28.6928036579	       27.4526409787	
        3.1950000000	       28.1697862924	       27.2104118319	
        3.2000000000	       27.6292984249	       26.9643942807	
        3.2050000000	       26.9276860945	       26.6650020503	
        3.2100000000	       26.2727941609	       26.4278118165	
        3.2150000000	       25.6863978248	       26.2725275402	
        3.2200000000	       25.1684045802	       26.1897395731	
        3.2250000000	       24.7788428283	       26.1474005428	
        3.2300000000	       24.5011331129	       26.1210185546	
        3.2350000000	       24.1535164984	       26.0555152410	
        3.2400000000	       23.8327993411	       25.9324381313	
        3.2450000000	       23.5725680037	       25.7463560954	
        3.2500000000	       23.3771519334	       25.5097762410	
        3.2550000000	       23.2619413696	       25.2579525092	
        3.2600000000	       23.2565456060	       25.0797910101	
        3.2650000000	       23.2832397865	       24.9166835140	
        3.2700000000	       23.4576208563	       24.7963921570	
        3.2750000000	       23.7427656319	       24.7586346041	
        3.2800000000	       24.1369471046	       24.8146948304	
        3.2850000000	       24.6404691255	       24.9419416709	
        3.2900000000	       25.1302085853	       25.0947563568	
        3.2950000000	       25.6261675692	       25.2618234390	
        3.3000000000	       26.3648579512	       25.5151517219	
        3.3050000000	       27.1629831131	       25.7876670800	
        3.3100000000	       28.0260346141	       26.0747402777	
        3.3150000000	       28.7762019800	       26.3131353470	
        3.3200000000	       29.3504206947	       26.4859165400	
        3.3250000000	       30.0512928739	       26.6782698758	
        3.3300000000	       30.6447698352	       26.8197703076	
        3.3350000000	       31.0607819537	       26.9088771907	
        3.3400000000	       31.3191849821	       26.9743867536	
        3.3450000000	       31.4530243815	       27.0461492803	
        3.3500000000	       31.5091158464	       27.1284812697	
        3.3550000000	       31.5854596110	       27.2632609444	
        3.3600000000	       31.7337644757	       27.4874682042	
        3.3650000000	       31.9754779746	       27.7256687907	
        3.3700000000	       32.3499372277	       27.9727232546	
        3.3750000000	       32.8239133504	       28.1681328681	
        3.3800000000	       33.2279257329	       28.2603101479	
        3.3850000000	       33.5664159409	       28.2949733449	
        3.3900000000	       33.9453138825	       28.2923273976	
        3.3950000000	       34.2230326667	       28.2924283631	
        3.4000000000	       34.4264064332	       28.3232576481	
        3.4050000000	       34.6143885385	       28.4448134758	
        3.4100000000	       34.8271664147	       28.6503868696	
        3.4150000000	       35.0515081490	       28.8582324843	
        3.4200000000	       35.4168771757	       29.1500695708	
        3.4250000000	       35.9144556589	       29.4784235052	
        3.4300000000	       36.4254768498	       29.7545593231	
        3.4350000000	       36.8939928495	       29.9681767302	
        3.4400000000	       37.2402014875	       30.1075750875	
        3.4450000000	       37.4085919728	       30.1743153761	
        3.4500000000	       37.4632345107	       30.2173567975	
        3.4550000000	       37.4594773608	       30.2512401488	
        3.4600000000	       37.3760653983	       30.2799080553	
        3.4650000000	       37.2744103763	       30.3164131969	
        3.4700000000	       37.2118736061	       30.3530001428	
        3.4750000000	       37.1838331899	       30.3909008937	
        3.4800000000	       37.1904183230	       30.4476856068	
        3.4850000000	       37.2295927449	       30.5135467111	
        3.4900000000	       37.2951860002	       30.5889496081	
        3.4950000000	       37.3499611700	       30.6731891812	
        3.5000000000	       37.3737409613	       30.7611089220	
        3.5050000000	       37.3540648865	       30.8412532983	
        3.5100000000	       37.2846533722	       30.9418294815	
        3.5150000000	       37.1184191128	       31.0537294977	
        3.5200000000	       36.8666925524	       31.1562555238	
        3.5250000000	       36.5462833996	       31.2469151193	
        3.5300000000	       36.1926019879	       31.3296733063	
        3.5350000000	       35.9181687294	       31.4017516572	
        3.5400000000	       35.6752319756	       31.4904513680	
        3.5450000000	       35.4396094021	       31.6514673418	
        3.5500000000	       35.3054796845	       31.8954769502	
        3.5550000000	       35.2859139705	       32.2438475915	
        3.5600000000	       35.3077675161	       32.7196261937	
        3.5650000000	       35.3553546859	       33.2282868849	
        3.5700000000	       35.3842684818	       33.6934069189	
        3.5750000000	       35.3742906082	       34.3677996399	
        3.5800000000	       35.3211421769	       35.0975204451	
        3.5850000000	       35.2142539760	       35.7778563873	
        3.5900000000	       35.1059840947	       36.3361943521	
        3.5950000000	       35.0310729316	       36.7038032809	
        3.6000000000	       35.0230790551	       37.0806619507	
        3.6050000000	       35.0511323226	       37.4059849595	
        3.6100000000	       35.1895887795	       37.6418883394	
        3.6150000000	       35.3739735794	       37.8236141691	
        3.6200000000	       35.5668900015	       37.9784547182	
        3.6250000000	       35.6697683698	       38.0688797786	
        3.6300000000	       35.7028017921	       38.1214675106	
        3.6350000000	       35.6686525148	       38.1458486508	
        3.6400000000	       35.5352660494	       38.0967346156	
        3.6450000000	       35.3532041996	       37.9924178947	
        3.6500000000	       35.1650370283	       37.8487619961	
        3.6550000000	       35.0259111359	       37.7158977719	
        3.6600000000	       34.9375815319	       37.6134810484	
        3.6650000000	       34.8590972379	       37.4956536858	
        3.6700000000	       34.8061736017	       37.3755168923	
